<?xml version="1.0" encoding="UTF-8" standalone="no"?>
<svg
   width="494"
   height="490"
   viewBox="0 0 494 490"
   version="1.1"
   id="svg103"
   sodipodi:docname="S&amp;_BlueOnWhite.svg"
   inkscape:version="1.2.2 (732a01da63, 2022-12-09)"
   xmlns:inkscape="http://www.inkscape.org/namespaces/inkscape"
   xmlns:sodipodi="http://sodipodi.sourceforge.net/DTD/sodipodi-0.dtd"
   xmlns:xlink="http://www.w3.org/1999/xlink"
   xmlns="http://www.w3.org/2000/svg"
   xmlns:svg="http://www.w3.org/2000/svg">
  <sodipodi:namedview
     id="namedview105"
     pagecolor="#ffffff"
     bordercolor="#000000"
     borderopacity="0.25"
     inkscape:showpageshadow="2"
     inkscape:pageopacity="0.0"
     inkscape:pagecheckerboard="0"
     inkscape:deskcolor="#d1d1d1"
     showgrid="false"
     inkscape:zoom="2.3612245"
     inkscape:cx="231.0242"
     inkscape:cy="245"
     inkscape:window-width="2558"
     inkscape:window-height="1360"
     inkscape:window-x="5113"
     inkscape:window-y="0"
     inkscape:window-maximized="0"
     inkscape:current-layer="svg103" />
  <defs
     id="defs87">
    <linearGradient
       id="linearGradient1676"
       inkscape:swatch="solid">
      <stop
         style="stop-color:#12275b;stop-opacity:1;"
         offset="0"
         id="stop1674" />
    </linearGradient>
    <linearGradient
       id="linearGradient944"
       inkscape:swatch="solid">
      <stop
         style="stop-color:#ffffff;stop-opacity:1;"
         offset="0"
         id="stop942" />
    </linearGradient>
    <style
       id="style58">
      .uuid-4df77c97-a441-4bb9-b877-62b9baa49f3f {
        clip-path: url(#uuid-5f7888a8-be5f-4df4-8ede-094561260e5e);
      }

      .uuid-4df77c97-a441-4bb9-b877-62b9baa49f3f, .uuid-5c1b78b4-26cc-4238-9874-65ade6d4d684, .uuid-c12bd66f-a02f-4bc7-a55c-21cf84e917a4, .uuid-2b9ed390-61d5-412c-92d2-313d9f1d3951, .uuid-327ed79b-3e31-4c55-ba8f-1e86d1650741, .uuid-59bfa7ef-fe31-420f-9de4-1f7c2483f030, .uuid-4186f129-382b-4293-a0e0-4f1662c526e7, .uuid-cfcdb177-2cd5-4839-a27a-b971da738eac, .uuid-3dc824ed-52c7-4e0d-9984-c7458d5fbff4, .uuid-b3e04de7-f8dc-4ce6-8f99-ca75c217c317 {
        stroke-width: 0px;
      }

      .uuid-4df77c97-a441-4bb9-b877-62b9baa49f3f, .uuid-5c1b78b4-26cc-4238-9874-65ade6d4d684, .uuid-c12bd66f-a02f-4bc7-a55c-21cf84e917a4, .uuid-2b9ed390-61d5-412c-92d2-313d9f1d3951, .uuid-327ed79b-3e31-4c55-ba8f-1e86d1650741, .uuid-59bfa7ef-fe31-420f-9de4-1f7c2483f030, .uuid-4186f129-382b-4293-a0e0-4f1662c526e7, .uuid-3dc824ed-52c7-4e0d-9984-c7458d5fbff4 {
        fill: none;
      }

      .uuid-5c1b78b4-26cc-4238-9874-65ade6d4d684 {
        clip-path: url(#uuid-d011bb0c-24b0-4783-abe1-f5f458daba91);
      }

      .uuid-2b9ed390-61d5-412c-92d2-313d9f1d3951 {
        clip-path: url(#uuid-54dc8894-fa7e-40d7-9f33-b5d28fb35bc4);
      }

      .uuid-327ed79b-3e31-4c55-ba8f-1e86d1650741 {
        clip-path: url(#uuid-aa018c71-c298-44f8-9bc0-b7a7ccd9a5d5);
      }

      .uuid-59bfa7ef-fe31-420f-9de4-1f7c2483f030 {
        clip-path: url(#uuid-0c2b26d3-3ffc-4bc3-b5a2-006ab3fddb1b);
      }

      .uuid-4186f129-382b-4293-a0e0-4f1662c526e7 {
        clip-path: url(#uuid-904674cc-5c05-4aa4-bb3b-d8c3d421aab7);
      }

      .uuid-cfcdb177-2cd5-4839-a27a-b971da738eac {
        fill: #213b75;
      }

      .uuid-f8feadd7-907b-4cd7-8e08-03a1450e9404 {
        clip-path: url(#uuid-dbba7fcc-f67b-4132-a6ed-0853760b6bf3);
      }

      .uuid-3dc824ed-52c7-4e0d-9984-c7458d5fbff4 {
        clip-path: url(#uuid-6c19eba1-19ac-4a32-aa4e-870d56ad8bca);
      }

      .uuid-b3e04de7-f8dc-4ce6-8f99-ca75c217c317 {
        fill: #fff;
      }
    </style>
    <clipPath
       id="uuid-0c2b26d3-3ffc-4bc3-b5a2-006ab3fddb1b">
      <polygon
         class="uuid-c12bd66f-a02f-4bc7-a55c-21cf84e917a4"
         points="-281.91 515.44 -281.91 -25.1 775.51 -25.1 775.51 515.44 -281.91 515.44 -281.91 515.44"
         id="polygon60" />
    </clipPath>
    <clipPath
       id="uuid-54dc8894-fa7e-40d7-9f33-b5d28fb35bc4">
      <polygon
         class="uuid-59bfa7ef-fe31-420f-9de4-1f7c2483f030"
         points="-281.91 -25.1 775.51 -25.1 775.51 515.44 -281.91 515.44 -281.91 -25.1 -281.91 -25.1"
         clip-path="url(#uuid-0c2b26d3-3ffc-4bc3-b5a2-006ab3fddb1b)"
         id="polygon63" />
    </clipPath>
    <clipPath
       id="uuid-d011bb0c-24b0-4783-abe1-f5f458daba91">
      <polygon
         class="uuid-2b9ed390-61d5-412c-92d2-313d9f1d3951"
         points="-281.8 -25.53 775.8 -25.53 774.44 327.22 774.44 515.87 -281.8 516.17 -281.8 -25.53 -281.8 -25.53"
         clip-path="url(#uuid-54dc8894-fa7e-40d7-9f33-b5d28fb35bc4)"
         id="polygon66" />
    </clipPath>
    <clipPath
       id="uuid-9e547404-f60e-42b9-a982-b0bc0aead5d0">
      <rect
         class="uuid-5c1b78b4-26cc-4238-9874-65ade6d4d684"
         x="-3"
         y="-5"
         width="500"
         height="500"
         clip-path="url(#uuid-d011bb0c-24b0-4783-abe1-f5f458daba91)"
         id="rect69" />
    </clipPath>
    <clipPath
       id="uuid-5f7888a8-be5f-4df4-8ede-094561260e5e">
      <rect
         class="uuid-c12bd66f-a02f-4bc7-a55c-21cf84e917a4"
         x="44.5"
         y="106.23"
         width="405.25"
         height="278.25"
         id="rect72" />
    </clipPath>
    <clipPath
       id="uuid-6c19eba1-19ac-4a32-aa4e-870d56ad8bca">
      <rect
         class="uuid-4df77c97-a441-4bb9-b877-62b9baa49f3f"
         x="70.74"
         y="130.56"
         width="352.52"
         height="228.89"
         clip-path="url(#uuid-5f7888a8-be5f-4df4-8ede-094561260e5e)"
         id="rect75" />
    </clipPath>
    <clipPath
       id="uuid-904674cc-5c05-4aa4-bb3b-d8c3d421aab7">
      <polygon
         class="uuid-3dc824ed-52c7-4e0d-9984-c7458d5fbff4"
         points="-281.91 515.44 -281.91 -25.1 775.51 -25.1 775.51 515.44 -281.91 515.44 -281.91 515.44"
         clip-path="url(#uuid-6c19eba1-19ac-4a32-aa4e-870d56ad8bca)"
         id="polygon78" />
    </clipPath>
    <clipPath
       id="uuid-aa018c71-c298-44f8-9bc0-b7a7ccd9a5d5">
      <polygon
         class="uuid-4186f129-382b-4293-a0e0-4f1662c526e7"
         points="-281.91 -25.1 775.51 -25.1 775.51 515.44 -281.91 515.44 -281.91 -25.1 -281.91 -25.1"
         clip-path="url(#uuid-904674cc-5c05-4aa4-bb3b-d8c3d421aab7)"
         id="polygon81" />
    </clipPath>
    <clipPath
       id="uuid-dbba7fcc-f67b-4132-a6ed-0853760b6bf3">
      <polygon
         class="uuid-327ed79b-3e31-4c55-ba8f-1e86d1650741"
         points="-281.8 -25.53 775.8 -25.53 774.44 327.22 774.44 515.87 -281.8 516.17 -281.8 -25.53 -281.8 -25.53"
         clip-path="url(#uuid-aa018c71-c298-44f8-9bc0-b7a7ccd9a5d5)"
         id="polygon84" />
    </clipPath>
    <linearGradient
       inkscape:collect="always"
       xlink:href="#linearGradient944"
       id="linearGradient946"
       x1="-5"
       y1="246"
       x2="499"
       y2="246"
       gradientUnits="userSpaceOnUse" />
    <linearGradient
       inkscape:collect="always"
       xlink:href="#linearGradient1676"
       id="linearGradient1678"
       x1="70.77"
       y1="247.82481"
       x2="423.26"
       y2="247.82481"
       gradientUnits="userSpaceOnUse" />
  </defs>
  <g
     id="uuid-f22fe10e-fb97-46ad-8d54-52a3633d77ed"
     data-name="Layer 2"
     style="fill:url(#linearGradient946);fill-opacity:1">
    <rect
       class="uuid-cfcdb177-2cd5-4839-a27a-b971da738eac"
       x="-5"
       y="-4"
       width="504"
       height="500"
       id="rect89"
       style="fill:url(#linearGradient946);fill-opacity:1" />
  </g>
  <g
     id="uuid-ff2c56fc-3038-4f9b-ba4e-c692c72a26e9"
     data-name="Layer 1"
     style="fill:url(#linearGradient1678);fill-opacity:1">
    <g
       class="uuid-f8feadd7-907b-4cd7-8e08-03a1450e9404"
       clip-path="url(#uuid-dbba7fcc-f67b-4132-a6ed-0853760b6bf3)"
       id="g100"
       style="fill:url(#linearGradient1678);fill-opacity:1">
      <path
         class="uuid-b3e04de7-f8dc-4ce6-8f99-ca75c217c317"
         d="M174.73,246.6c-3.64-1.7-6.81-2.78-9.62-3.73l-1.04-.36c-8.35-2.85-14.23-4.19-19.92-5.48-6.09-1.38-11.84-2.69-20.31-5.87-7.88-2.95-11.19-5.12-13.17-6.41l-.07-.05c-2.3-1.5-8.06-5.63-11.7-11.6-5.59-9.15-6.58-20.38-2.95-33.37,4.9-14.14,14.5-23.61,28.54-28.16,24.57-7.95,59.46.99,77.69,13.84l7.13-10.11c-21.12-14.89-60.05-24.75-88.63-15.5-17.74,5.74-30.36,18.21-36.49,36.07l-.1.32c-4.67,16.51-3.24,31.1,4.25,43.35,4.79,7.84,11.78,13.09,15.57,15.56,2.25,1.47,6.44,4.2,15.59,7.63,9.26,3.47,15.7,4.93,21.92,6.35,5.37,1.22,10.93,2.48,18.66,5.12l1.07.37c2.62.89,5.33,1.81,8.34,3.22,23.09,10.81,30.56,24.51,28.44,47.37-1.47,15.89-10.28,23.56-16.7,29.17h-.01c-21.17,17.34-53.16,14.82-75.49,4.63-11.39-5.2-19.9-10.73-26.33-16.3l-8.63,8.7c7.29,7.83,21.68,15.14,29.83,18.86,13.12,5.99,27.82,9.22,41.76,9.22,1.12,0,2.24-.02,3.35-.06,16.84-.64,31.86-6,43.45-15.52l.22-.19c7.09-6.18,18.97-16.53,20.89-37.36,1.83-19.74-1.09-43.59-35.51-59.71"
         id="path92"
         style="fill:url(#linearGradient1678);fill-opacity:1" />
      <path
         class="uuid-b3e04de7-f8dc-4ce6-8f99-ca75c217c317"
         d="M401.85,289.21l-9.09-8.4c8.07-8.74,10.21-29.06,10.21-38.59h12.38c0,1.44-.08,9.08-1.61,18.2-2.16,12.9-6.16,22.58-11.89,28.78"
         id="path94"
         style="fill:url(#linearGradient1678);fill-opacity:1" />
      <path
         class="uuid-b3e04de7-f8dc-4ce6-8f99-ca75c217c317"
         d="M345.66,332.82c-9.67,9.03-25.79,14.26-41.13,13.33-11.12-.68-27.2-4.88-40.67-21.07-22.82-27.43-8.85-56.12,2.42-71.65l-8.85-8.85c-23.13,30.74-24.26,62.96-3.09,88.41,16.3,19.59,35.88,24.69,49.44,25.51,1.45.09,2.91.13,4.37.13,17.49,0,34.85-6.29,46.11-16.91l-5.09-5.41-3.5-3.5Z"
         id="path96"
         style="fill:url(#linearGradient1678);fill-opacity:1" />
      <path
         class="uuid-b3e04de7-f8dc-4ce6-8f99-ca75c217c317"
         d="M423.26,353.05c-31.47-31.48-109.26-109.53-132.57-135.11-.5-.55-1.02-1.11-1.54-1.67-8.25-8.94-16.79-18.18-11.56-40.74,4.5-13.16,12.63-21.54,24.16-24.92,17.94-5.26,40.52,2.57,53.55,13.01l7.74-9.66c-15.05-12.07-41.75-21.98-64.77-15.23-15.49,4.54-26.73,15.99-32.5,33.12l-.16.56c-6.87,29.17,5.45,42.51,14.45,52.26.5.54,1,1.08,1.48,1.61,21.52,23.63,88.88,91.38,124.22,126.78h17.49Z"
         id="path98"
         style="fill:url(#linearGradient1678);fill-opacity:1" />
    </g>
  </g>
</svg>
